/* XPM */
static char *result[] = {
/* columns rows colors chars-per-pixel */
"30 30 14 1 ",
"  c #5F7A79",
". c #90625D",
"X c #AA7959",
"o c #6E967C",
"O c #B68962",
"+ c #C49A6C",
"@ c #A4C263",
"# c #B3C473",
"$ c #C3CF79",
"% c #C0D470",
"& c #D2E077",
"* c #97BB8E",
"= c #AED499",
"- c #C2E09A",
/* pixels */
"%%%%%%%%%%%         %%%%%%%%%%",
"%%%%%%%%%  *======** %@@@@@%%%",
"%%%@@@@  *===---=--=*  @@@@@%%",
"%%@@@@ *=====---=--==** @@@@%%",
"%%@@@ *=---=---========* @@@%%",
"%%@@ **=------===---===** @%%%",
"%%@@ =====--=====------** %%%%",
"%%% *===============---==* @@%",
"%%% *====================* @@@",
"%%% ***===**======***==*** @@@",
"%%% ***===**======***==** @@@%",
"%%% ***********==*===**** %%%%",
"%%%% ***===*************** %%%",
"%%%% ********************* %%%",
"%%% o********************o %%%",
"%%% ooo*oo**ooo*****oooooo %%%",
"%%% ooo*oo**ooo*****oooooo %%%",
"%%% oooooooo*****ooo***oo %%%%",
"%%%& oo***ooooooooooooooo &%%%",
"%%&& oooooooooooooooooooo &&&%",
"%%&&& oooooooooooooooooo &&&&&",
"%%%&&&  ooooooooooooo   &&&&&&",
"%%%%%%%%             %&&&&&&&%",
"%%%%%%%%%&&.XXXXXX.%%%%%%%%%%%",
"%%%%%%%&&&&.OXXXXO.&&&&%%%%%%%",
"%%%%%%%&&&$.OOOOOO.$&&&&%%%%%%",
"%%&&&%%%$$$.O+O+++.$$$&&%%%%%%",
"%&&&&&%###.++++++++.$$$%%%%%%%",
"%&&&&&%####++++++++####%%%%%%%",
"%%&&&%%%######++######%%%%%%%%"
};
