/* XPM */
static char *result[] = {
/* columns rows colors chars-per-pixel */
"30 30 11 1 ",
"  c black",
". c #1D235D",
"X c #727E52",
"o c #9E2E46",
"O c #A4C263",
"+ c #002E7D",
"@ c #33418A",
"# c #425B9E",
"$ c #4D8AB3",
"% c #f500f4",
"& c white",
/* pixels */
"+++++++++++++++++++++++++++++O",
"++++++++++++++++++++++++++++++",
"+++O+++++++O++O+++++++++++++++",
"++++++++++++++++++++++++O+++++",
"++++++++++++++++++++++++++++++",
"++++++++++++++++++++++++++++++",
"+++++++++++++++++++O++++++++++",
"++++++O+++++++++++++++++++O+++",
"++++++++++++++++++++++++++++++",
"++++++++++++++++++++++++++++++",
"++++++++++++++++++++++++++++++",
"++++++++++++++++++++++++++++++",
"++++++++++++++++++++++++++++++",
"++++++++++++++++++++++++++++++",
"++++++++++++++++++++++++++++++",
"+O+++++++++++++++++++++++++++O",
"++++++++++++++++++++++++++++++",
"++++++++++++++++++++++++++++++",
"++++++++++++++++++++++++++++++",
"+++++++++++........+++++++++++",
"+++++++++..%%%%%%$$..+++++++++",
"++++O+++.%%%%%%%%%$$#.++++++++",
"+++++++.$% %%% &%%%$$#.+++++++",
"++++++.#$@ %%%  @@%$$#.+++++++",
"++++++.#$%@@@@@@@%%$$##.++++++",
"++++++.##$%@@@oo%%$$###.++++++",
"+++++++.##$$$$$$$$####.++++O++",
"+++++++X.###########XXX+++++++",
"++++++++XXXXXXXXXXXXXX++++++++",
"++++++++++++++++++++++++++++++"
};
