/* XPM */
static char *result[] = {
/* columns rows colors chars-per-pixel */
"30 30 9 1 ",
"  c #754C60",
". c #90625D",
"X c #A4C263",
"o c #B3C473",
"O c #C0D470",
"+ c #D99A9A",
"@ c #DCB98A",
"# c #E8B5AC",
"$ c #F3E5C2",
/* pixels */
"OOOOOOOOOOOOOOOOOOOOOOOOOOOOOO",
"OOOOOOOOOOOOOOOOOOOOOOOOOOOOOO",
"OOXOOOOOOOOOOOOOOOOOOOOOOOOOXO",
"OOOOOOOOOOOOOOOOOOOOOOOOXOOOOO",
"OOOOOOXOOOOOOOOOOOOOOOOOOOOOOO",
"OOOOOOOOOOOOOOOOOOOOOOOOOOOOOO",
"OOOOOOOOOOOOOOOO..OO..OOOOOOOO",
"OOOOOOOOOOOOOOO.$.OO.$.OOOOOOO",
"OOOOOOOOOOOO..O.$....$.OO..OOO",
"OOOOOOOOOOO.$$..@@@@@$$..$$.OO",
"OOOOOOO.....$$$$@@@@@$$$.$$.OO",
"OOOOO..@@@$.##$@@@ @$$ $.##.OO",
"OOOO.@@@@@$$...@@@ $$$ $$..OOO",
"OOOO.@@@@$$$$$$$$$$$$$$$$.OOOO",
"OOO..@@$$$$$$$$$$$$######.OOOO",
"OO.@.$$$$$$@@$$.$$##+##+#.OOOO",
"O.@..$$$$$@@@@$$.$#######.OOOO",
"O..O.$$$$$$@@$$$$........OOOOO",
"OOOO.@@@@$$$$$$$@@@.OOOOOOOOOO",
"OOOO.@@@@@@@@@@@@@@.OOOOOOOOOO",
"OOOoo.@@....@@...@@.ooOOOOOOOO",
"OOooo.@@.oo.@@.o.@@.oooOOOOOOO",
"OOoooo..oooo..ooo..ooooOOOOOOX",
"OOXoooooooooooooooooooOOOOOOOO",
"OOOOOOOXOOOOOOOOOOOOOOOOXOOOOO",
"OOOOOOOOOOOOOOOOOOOOOOOOOOOOOO",
"OOOOOOOOOOOOOOOOOOOOOOOOOOOOOO",
"OOOOOOOOOOOOOOOOOOOOOOOOOOOOOO",
"OOOOOOOOOOOOOOOOOOOOOOOOOOOOOO",
"OOOOOOOOOOOOOOOOOOOOOOOOOOOOOO"
};
