/* XPM */
static char *result[] = {
/* columns rows colors chars-per-pixel */
"30 30 9 1 ",
"  c #754C60",
". c #90625D",
"X c #A4C263",
"o c #B3C473",
"O c #C0D470",
"+ c #D99A9A",
"@ c #DCB98A",
"# c #E8B5AC",
"$ c #F3E5C2",
/* pixels */
"OOOOOOOOOOOOOOOOOOOOOOOOOOOOOO",
"OOOOOOOOOOOOOOOOOOOOOOOOOOOOOO",
"OOXOOOOOOOOOOOOOOOOOOOOOOOOOXO",
"OOOOOOOOOOOOOOOOOOOOOOOOXOOOOO",
"OOOOOOXOOOOOOOOOOOOOOOOOOOOOOO",
"OOOOOOOOOOOOOOOOOOOOOOOOOOOOOO",
"OOOOOOO..OO..OOOOOOOOOOOOOOOOO",
"OOOOOO.$.OO.$.OOOOOOOOOOOOOOOO",
"OO..OO.$....$.O..OOOOOOOOOOOOO",
"O.$$..$$@@@@@..$$.OOOOOOOOOOOO",
"O.$$.$$$@@@@@$$$$.....OOOOOOOO",
"O.##.$ $$@ @@@$##.$@@@..OOOOOO",
"OO..$$ $$$ @@@...$$@@@@@.OOOOO",
"OOO.$$$$$$$$$$$$$$$$@@@@.O..OO",
"OOO.######$$$$$$$$$$$$@@..@.OO",
"OOO.#+##+##$$.$$@@$$$$$$.@.OOO",
"OOO.#######$.$$@@@@$$$$$..OOOO",
"OOOO........$$$$@@$$$$$$.OOOOO",
"OOOOOOOOO.@@@$$$$$$$@@@@.OOOOO",
"OOOOOOOOO.@@@@@@@@@@@@@@.OOOOO",
"OOOOOOOoo.@@...@@....@@.ooOOOO",
"OOOOOOooo.@@.o.@@.oo.@@.oooOOO",
"OOOOOOoooo..ooo..oooo..ooooOOX",
"OOXOOOOoooooooooooooooooooOOOO",
"OOOOOOOXOOOOOOOOOOOOOOOOXOOOOO",
"OOOOOOOOOOOOOOOOOOOOOOOOOOOOOO",
"OOOOOOOOOOOOOOOOOOOOOOOOOOOOOO",
"OOOOOOOOOOOOOOOOOOOOOOOOOOOOOO",
"OOOOOOOOOOOOOOOOOOOOOOOOOOOOOO",
"OOOOOOOOOOOOOOOOOOOOOOOOOOOOOO"
};
