/* XPM */
static char *result[] = {
/* columns rows colors chars-per-pixel */
"30 30 11 1 ",
"  c #754C60",
". c #90625D",
"X c #A9B674",
"o c #A4C263",
"O c #B3C473",
"+ c #C0D470",
"@ c #BE9F8A",
"# c #D99A9A",
"$ c #DCB98A",
"% c #E8B5AC",
"& c #F3E5C2",
/* pixels */
"++++++++++++++++++++++++++++++",
"++++++++++++++++++++++++++++++",
"++o+++++++++++++++++++++++++o+",
"++++++++++++++++++++++++o+++++",
"++++++o+++++++++++++++++++++++",
"++++++++++++++++++++++++++++++",
"+++++++..++..+++++++++++++++++",
"++++++.&.++.&.++++++++++++++++",
"++..++.&....&.+..+++++++++++++",
"+.&&..&&$$$$$..&&.++++++++++++",
"+.&&.&&&$$$$$&&&&.....++++++++",
"+.%%.& &&$ $$$&%%.&$$$..++++++",
"++..&& &&& $$$...&&$$$$$.+++++",
"+++.&&&&&&&&&&&&&&&&$$$$.+++++",
"+++.%%%%%%&&&&&&&&&&&&$$..++++",
"+++.%#%%#%%&&.&&$$&&&&&&.$.+++",
"+++.%%%%%%%&.&&$$$$&&&&&..$.++",
"++++........&&&&$$&&&&&&.+..++",
"+++++++++.$$$&&&&&&&$$$$.+++++",
"+++++++++.$$$$$$$$$$$$$$.+++++",
"+++++++O.@...$$$...$$$..@.++++",
"++++++OO.@@.O.$$.O.$$..@@.O+++",
"++++++OOX..OOO..OOO..OO..XO++o",
"++o++++OOOOOOOOOOOOOOOOOOO++++",
"+++++++o++++++++++++++++o+++++",
"++++++++++++++++++++++++++++++",
"++++++++++++++++++++++++++++++",
"++++++++++++++++++++++++++++++",
"++++++++++++++++++++++++++++++",
"++++++++++++++++++++++++++++++"
};
