/* XPM */
static char *result[] = {
/* columns rows colors chars-per-pixel */
"30 30 10 1 ",
"  c #754C60",
". c #90625D",
"X c #A4C263",
"o c #B3C473",
"O c #C0D470",
"+ c #BE9F8A",
"@ c #D99A9A",
"# c #DCB98A",
"$ c #E8B5AC",
"% c #F3E5C2",
/* pixels */
"OOOOOOOOOOOOOOOOOOOOOOOOOOOOOO",
"OOOOOOOOOOOOOOOOOOOOOOOOOOOOOO",
"OOXOOOOOOOOOOOOOOOOOOOOOOOOOXO",
"OOOOOOOOOOOOOOOOOOOOOOOOXOOOOO",
"OOOOOOXOOOOOOOOOOOOOOOOOOOOOOO",
"OOOOOOOOOOOOOOOOOOOOOOOOOOOOOO",
"OOOOOOOOOOOOOOOOOOOOOOOOOOOOOO",
"OOOOOOO..OO..OOOOOOOOOOOOOOOOO",
"OOOOOO.%.OO.%.OOOOOOOOOOOOOOOO",
"OO..OO.%....%.O..OOOOOOOOOOOOO",
"O.%%..%%#####..%%.....OOOOOOOO",
"O.%%.%%%#####%%%%.%###..OOOOOO",
"O.$$.% %%# ###%$$.%#####.OOOOO",
"OO..%% %%% ###...%%%####.OOOOO",
"OOO.%%%%%%%%%%%%%%%%%%##..OOOO",
"OOO.$$$$$$%%%%%%##%%%%%%.#.OOO",
"OOO.$@$$@$$%%.%####%%%%%..#.OO",
"OOO.$$$$$$$%.%%%##%%%%%%.O..OO",
"OOOO........#%%%%%%%####.OOOOO",
"OOOOOOOOOO.##############.OOOO",
"OOOOOOOoo.###..........###.OOO",
"OOOOOOooo.##.++.o.++.oo.##.OOO",
"OOOOOOoooo..o..ooo..oooo..oOOX",
"OOXOOOOoooooooooooooooooooOOOO",
"OOOOOOOXOOOOOOOOOOOOOOOOXOOOOO",
"OOOOOOOOOOOOOOOOOOOOOOOOOOOOOO",
"OOOOOOOOOOOOOOOOOOOOOOOOOOOOOO",
"OOOOOOOOOOOOOOOOOOOOOOOOOOOOOO",
"OOOOOOOOOOOOOOOOOOOOOOOOOOOOOO",
"OOOOOOOOOOOOOOOOOOOOOOOOOOOOOO"
};
