/* XPM */
static char *a392273c0890444cd0154436f6d1e693g3xWwetKVXs3yuvO[] = {
/* columns rows colors chars-per-pixel */
"32 32 163 2 ",
"   c None",
".  c #333B33",
"X  c #443B21",
"o  c #384139",
"O  c #494127",
"+  c #534B2E",
"@  c #424A3F",
"#  c #27566F",
"$  c #335563",
"%  c #27617D",
"&  c #BFB27D",
"*  c #C4B67F",
"=  c #FBC455",
"-  c #F7C65B",
";  c #FAC75B",
":  c #FACA62",
">  c #1E6188",
",  c #0067BB",
"<  c #0369BC",
"1  c #0D6CBC",
"2  c #106EBC",
"3  c #0F71BE",
"4  c #1471BD",
"5  c #1B75BE",
"6  c #2378BF",
"7  c #046CC2",
"8  c #0A6EC1",
"9  c #0C71C6",
"0  c #0571CC",
"q  c #0B75CC",
"w  c #1374C5",
"e  c #1F78C1",
"r  c #1478CD",
"t  c #1D7BCA",
"y  c #0575D6",
"u  c #0977D4",
"i  c #047BD5",
"p  c #0C7AD6",
"a  c #0577D9",
"s  c #057BDB",
"d  c #0B7AD9",
"f  c #147DD6",
"g  c #147ED8",
"h  c #187FD8",
"j  c #2277C2",
"k  c #247AC2",
"l  c #2C7EC4",
"z  c #227EC9",
"x  c #067FE0",
"c  c #73A7AB",
"v  c #75A9AD",
"b  c #7BACAF",
"n  c #70A6B1",
"m  c #7BACB0",
"M  c #0B81DA",
"N  c #1C80D7",
"B  c #1481DB",
"V  c #1B81DA",
"C  c #1580D4",
"Z  c #2883CD",
"A  c #3587C7",
"S  c #2B88D3",
"D  c #2D8BDB",
"F  c #2688D7",
"G  c #328EDD",
"H  c #3691DD",
"J  c #3B94DE",
"K  c #0583E4",
"L  c #0688E7",
"P  c #0787E9",
"I  c #058AEC",
"U  c #0B8CEB",
"Y  c #0E89E5",
"T  c #108EE9",
"R  c #168CE6",
"E  c #0D90EE",
"W  c #1492EC",
"Q  c #1F92E9",
"!  c #058EF0",
"~  c #0692F4",
"^  c #0B94F3",
"/  c #0B99F4",
"(  c #1295F2",
")  c #1599F2",
"_  c #189CF3",
"`  c #2B9FE7",
"'  c #279DE8",
"]  c #2D9AEB",
"[  c #369EEC",
"{  c #249DF2",
"}  c #2B9FF2",
"|  c #14A3F6",
" . c #1AABF6",
".. c #1FA2F4",
"X. c #3BA2EE",
"o. c #3DB8EC",
"O. c #21ACF5",
"+. c #27A3F3",
"@. c #38A5F0",
"#. c #2FB2F0",
"$. c #25B8F9",
"%. c #2BBEFA",
"&. c #21B3F8",
"*. c #4698DD",
"=. c #49A9E0",
"-. c #43A4E5",
";. c #59AAE8",
":. c #46AEF5",
">. c #6DBCF3",
",. c #2CC0FA",
"<. c #32C6FB",
"1. c #34C8FC",
"2. c #39C9F9",
"3. c #75CDDC",
"4. c #63C6E1",
"5. c #76C2F5",
"6. c #79C3F5",
"7. c #A2A787",
"8. c #B7BB96",
"9. c #8CABA3",
"0. c #C6B983",
"q. c #D6C88C",
"w. c #E9DA9D",
"e. c #CFD9B5",
"r. c #C0D3BA",
"t. c #DDE1B4",
"y. c #EEE7AF",
"u. c #EFE8AF",
"i. c #F0E8AF",
"p. c #FFEFAB",
"a. c #FFEEA9",
"s. c #F0E2A1",
"d. c #FFF1AB",
"f. c #FFF0AC",
"g. c #E1E0B2",
"h. c #80B2D9",
"j. c #91BDDE",
"k. c #93C7CA",
"l. c #89D5D6",
"z. c #9ADBD1",
"x. c #99DBD1",
"c. c #92D8D4",
"v. c #B6D4C0",
"b. c #97C1E5",
"n. c #97C6EC",
"m. c #A0CAE9",
"M. c #AED2EE",
"N. c #B7D4EB",
"B. c #BFD8EB",
"V. c #B8D4EA",
"C. c #B9D8F0",
"Z. c #B0D5F1",
"A. c #C6DEEF",
"S. c #C2DDF3",
"D. c #D0E3EF",
"F. c #CBE2F3",
"G. c #D6E9F6",
"H. c #DEEDF8",
"J. c #DBEAF5",
"K. c #EAF4F9",
"L. c #E9F3F7",
"P. c #F4FAFB",
"I. c #FEFEFE",
/* pixels */
"                  ; = :                 : ; ;                   ",
"                  ; = ;                 ; = =                   ",
"                  v c m                 m c n                   ",
"                  ^ ~ (                 ( ~ ~                   ",
"                +.( ~ )                 ..~ ^ {                 ",
"            ( ^ ^ ~ ~ | <.2.1.1.1.2.2.1. .~ ~ ^ ^ ^             ",
"            ^ ^ ~ ~ ~ / %.%.%.,.%.%.%.,.| ~ ~ ~ ^ ^             ",
"      ( ~ ^ ^ ~ ^ ~ ~ ~ ^ / / / / / / ^ ^ ~ ~ ~ ! ~ ^ ^ (       ",
"      ( ~ ~ ~ / ~ ~ / ~ ~ / ~ ~ ~ ~ / ~ / ~ ~ ~ ^ ~ ~ ~ /       ",
"      %.$.$.$.$.$.$.$.$.$.$. .~ ~ | $.$.$.$.$.$.$.$.$.$.%.      ",
"      2.1.1.1.1.1.1.<.1.1.1.&.~ ~  .<.1.<.1.<.1.1.1.1.1.2.      ",
"@.{ { O. .#.l.x.x.x.x.3.O. .| ~ ~ |  . .4.x.x.x.x.c.o. . .+.{ } ",
"( ^ ^ ~ ~ ` t.p.d.d.d.v.( ~ ~ ~ ~ ~ ~ ~ k.d.p.p.p.y.=.! ^ ~ ^ ( ",
"( ~ ~ ~ ~ ` t.p.s.0.* 9.E ~ ~ ~ ~ ~ ~ ~ n 0.0.w.p.y.=.~ ^ ~ ! ^ ",
") ^ ~ ~ ~ ' t.f.q.+ O $ E ~ ~ ~ ~ ~ ~ ! % X O & f.y.=.! ^ ~ ~ ( ",
"W I ~ ~ ! ' r.t.8.o . # U ~ ~ / / ~ ~ ~ > . o 7.t.e.X.~ ! ! ! E ",
"h s s I ~ I F S Z 4 2 q ~ ~ | %.,. .~ ~ p 2 2 z S Z U ~ I x a M ",
"g d s I ~ I a a y a y K ~ ~ | <.1. .~ ~ K a y s a a I ~ ! s a d ",
"T I I K K K I I I L L I ~ ~ ^ | | / ~ ~ U I I L I I M x K P I U ",
") ~ I s y s ! ~ ~ ~ ~ ~ ~ ~ ~ ! ~ ~ ~ ~ ! ~ ~ ^ ~ ~ x y a I ~ ( ",
"R P K K K K I K Q >.6.;.M s L ~ ~ L i M -.6.>.] K P K K K I K Y ",
"h y a I ! I a a H L.I.N.1 < i ~ ~ i < < j.I.P.;.y a I ~ I s y d ",
"h a s X.:.X.p 0 S N.C.n.j 4 C I I B 4 4 h.B.V.*.a d [ :.@.B y p ",
"g a V S.P.A.z , 7 f B F     J d s G     k 4 w q a g Z.P.G.G a p ",
"f y h C.K.A.A 5 w y a h       u u D     4 < < q y h M.K.F.D y p ",
"w , 8 F G *.B.D.m.B a h       7 7 z     f y y       *.G D 9 7 1 ",
"4 < 1 y y D H.I.F.V y g       1 < j     f u u       h a y 7 < 2 ",
"      w 7 S J.I.S.V y g       < < j     f y d       t 7 8 l     ",
"      2 < e     n.g a g       1 < k     h u d       j < 1       ",
"      k 2 k       q 0 r       6 2       r 0 0       l 4 5       ",
"                  1 < 3                 4 < <                   ",
"                  5 4 j                 6 4 4                   "
};
