/* XPM */
static char *result[] = {
/* columns rows colors chars-per-pixel */
"30 30 12 1 ",
"  c #90625D",
". c #AA7959",
"X c #C49A6C",
"o c #A4C263",
"O c #C0D470",
"+ c #D2E077",
"@ c #EAE178",
"# c #B1E0BE",
"$ c #DED9AB",
"% c #F0EFB9",
"& c #8CBFC2",
"* c #9BD4C3",
/* pixels */
"OOOOOOOOOOOOOOOOOOOOOOOOOOOOOO",
"OOOOOoooooOOOOOOOOOOOOOOOOOOOO",
"OOOooooooooOOOOOOOO@@OOOOOOOOO",
"OOoooooooooOOOOOOO@@@@OOOOOOOO",
"OOoooooooo  OOOOOO  @OOOO@@OOO",
"OOOoooooo XX      XX OOO@@@@OO",
"OOOOOOOO X..XXXXXX..X OOO@@OOO",
"OOOOOOOO ............ OOOOOOOO",
"OooooOOO ............ OOOOOOOO",
"ooooooOO ..$$$$$$$$.. @OOOOOOO",
"ooooooOO .$%%%%%%%%$. @@OOOOOO",
"OooooOOO X$%%%%%%%%$X @OOOOOOO",
"OOOOOOOO X&********&X OOOOOOOO",
"OOOOOOOO &*########*& OOOOOOOO",
"OOOOOOOO &*########*& OOOOOOOO",
"OOOOOOOO &*########*& OOOOOOOO",
"OOOOOOOO &*########*& OOOOOOOO",
"OOOOOOOO &*########*& OOOOOOOO",
"OOOOO+++ &*########*& OOOOOOOO",
"OOOO++++ &*########*& OOOOOOOO",
"OOOO++++ &XX######XX& OOOOOOOO",
"OOOO++++ X..XXXXXX..X @OOOOOOO",
"OOOOO+++ ............ OOOOOOOO",
"OOOOOOOO ............ OOOOOOOO",
"OO++++OO ..        .. OOOOOOOO",
"O++++++OO  OOOOOOOO  OO@@OOOOO",
"O++++++OOOOOOOOOOOOOOO@@@@OOOO",
"OO++++OOOOOOOOOOOOOOOOO@@OOOOO",
"OOOOOOOOOOOOOOOOOOOOOOOOOOOOOO",
"OOOOOOOOOOOOOOOOOOOOOOOOOOOOOO"
};
