/* XPM */
static char *b1745c8d693247b8960ddd56c4cc78e9uwzBDvz0dF3exRSk[] = {
/* columns rows colors chars-per-pixel */
"32 32 147 2 ",
"   c #002E7D",
".  c #2D3837",
"X  c #243E3B",
"o  c #2D3D3B",
"O  c #363736",
"+  c #3A3433",
"@  c #353836",
"#  c #393836",
"$  c #343D3B",
"%  c #3B3D3B",
"&  c #403837",
"*  c #423E3C",
"=  c #24433E",
"-  c #2D423E",
";  c #34413E",
":  c #3C413F",
">  c #46403F",
",  c #1F4A45",
"<  c #254641",
"1  c #2C4642",
"2  c #244B46",
"3  c #2B4B46",
"4  c #244F48",
"5  c #2D4E49",
"6  c #334542",
"7  c #3C4544",
"8  c #344946",
"9  c #3C4946",
"0  c #354D49",
"q  c #3A4D49",
"w  c #25544D",
"e  c #2A524C",
"r  c #33534E",
"t  c #3B524D",
"y  c #275650",
"u  c #2C5751",
"i  c #275A52",
"p  c #2B5B54",
"a  c #335551",
"s  c #3A5551",
"d  c #325954",
"f  c #3A5A56",
"g  c #355E58",
"h  c #3C5E59",
"j  c #2D635B",
"k  c #32645D",
"l  c #3B625D",
"z  c #2E6760",
"x  c #2F6961",
"c  c #356660",
"v  c #3A6762",
"b  c #336B64",
"n  c #396B65",
"m  c #356E69",
"M  c #396F69",
"N  c #36716B",
"B  c #3A736D",
"V  c #3D7871",
"C  c #424544",
"Z  c #424846",
"A  c #4C4947",
"S  c #444B4A",
"D  c #484E4D",
"F  c #4B4D4C",
"G  c #4C4E4D",
"H  c #4D4E4E",
"J  c #4E4F4E",
"K  c #4B4C4B",
"L  c #41524E",
"P  c #43504C",
"I  c #4F504F",
"U  c #4F514E",
"Y  c #435653",
"T  c #415854",
"R  c #435A56",
"E  c #445855",
"W  c #415C58",
"Q  c #535555",
"!  c #545655",
"~  c #535454",
"^  c #565857",
"/  c #575958",
"(  c #575858",
")  c #595B5B",
"_  c #5A5A5A",
"`  c #5A5B5B",
"'  c #5A5C5C",
"]  c #5D5F5E",
"[  c #5F5F5F",
"{  c #5B5C5C",
"}  c #45635F",
"|  c #416762",
" . c #416B66",
".. c #436E68",
"X. c #5E6060",
"o. c #40716B",
"O. c #40746E",
"+. c #626262",
"@. c #626362",
"#. c gray39",
"$. c #646464",
"%. c #646565",
"&. c #656565",
"*. c #666565",
"=. c gray40",
"-. c #676667",
";. c #676767",
":. c #646464",
">. c #686868",
",. c DimGray",
"<. c #6A6969",
"1. c #6A6A6A",
"2. c gray42",
"3. c #6D6D6D",
"4. c #6C6C6C",
"5. c gray43",
"6. c #6F6F6F",
"7. c #6C6C6C",
"8. c gray44",
"9. c #717171",
"0. c #727272",
"q. c gray45",
"w. c #737272",
"e. c #747474",
"r. c gray46",
"t. c #767676",
"y. c #777777",
"u. c #737373",
"i. c #787777",
"p. c gray47",
"a. c #797979",
"s. c gray48",
"d. c #7B7B7B",
"f. c #7C7C7C",
"g. c gray49",
"h. c #7E7E7E",
"j. c gray50",
"k. c #7B7B7B",
"l. c #818181",
"z. c gray51",
"x. c #838383",
"c. c #848484",
"v. c gray52",
"b. c #878787",
"n. c #808080",
"m. c #898989",
"M. c gray54",
/* pixels */
"                                                                ",
"                      ,.p.M.b.c.b.M.z.,.                        ",
"                  h.v.k.t.k.p.k.p.p.p.r.c.z.                    ",
"            h.p.l.v.k.h.q.k.k.t.p.h.q.h.h.z.c.i.h.t.            ",
"        r.z.h.p.q.q.q.t.q.q.h.p.h.p.6.r.r.q.q.t.h.z.p.          ",
"      ,.h.q.q.r.3.,.4.-.] _ =.@.=.X.' =.<.4.,.q.q.q.h.q.        ",
"    r.h.e.r.r.6.+.H S 7 6 6 q 8 0 6 6 8 C K ' 3.q.r.q.p.p.      ",
"  =.x.p.r.r.,.H % o 5 0 e u k d k u u d 5 1 6 C @.q.p.t.c.q.    ",
"q.p.j.r.p.8.C $ 8 5 d p p k B n B j k B k k p 5 ; @.p.r.k.h.r.+.",
"M.p.h.d.r.I $ 3 e d c b k b O.N B k k B n N k p 5 C 6.p.h.p.z.q.",
"M.p.q.r.,.C ; q t l B W g W o.m o.f l | N O.h g t 8 ] i.r.r.z.6.",
"p.p.r.q.H $ 8 a h n o.h g f n M ..d g l n O.f l s 0 C =.r.p.p.3.",
"r.c.p.p.! 6 p b N M V B x N B m V k k B n V n c b a Z w.p.h.h.  ",
"2.r.8.i._ 6 g b N N V B b b V c R C 9 n v Y C q k a F w.q.q.q.  ",
",.p.e.r.^ 6 g b N M O.B N b B f > & > 9 C * * C C % K q.r.r.q.  ",
"=.r.r.6.F 6 g b N N B B b N B b s : 9 v v q % 8 c a 7 =.r.r.6.  ",
"x.p.d.a.! ; s l n c B N k m B b B k k B b N v k b r S q.d.p.j.r.",
"e.5.e.a.) $ Z U S r m n k k B k M k k M b M b k k e F r.r.8.6.;.",
"d.e.a.j.) @ > A * ; k R f R k j } t R R j l E d E 8 S d.h.r.r.>.",
"e.t.e.8.U ; K U U 8 b k j k b j b j j m k b k j k e 7 ,.q.r.r.X.",
"w.d.w.e.~ % C P A 8 k b j j m j m j j N j b k j z u C 3.q.p.d.  ",
";.6.2.8.^ ; q q s p b x j j m j b j j k k k k p p 5 S 6.2.2.6.  ",
":.e.2.8.^ 6 y j x j b x j j k j t % : k j : : 8 d 3 Z 6.6.8.6.  ",
":.w.8.2.S - y j m z b x j j N 0 % + # : ; + # # $ @ % @.6.q.6.! ",
"j.e.t.e.~ - w w k k j j w i k d 8 O $ d u 6 O $ e 1 C 6.t.q.a.6.",
"5.<.8.e.^ ; 2 4 i j p i 4 4 j i p w 2 p p i u 2 4 < S q.q.4.>.+.",
"t.5.t.d.^ ; 3 2 u p p p 4 e j y p e 4 u u i u 4 5 < S r.t.8.q.+.",
"8.8.2.2.A @ ; 8 8 y u 8 - 8 5 y s 1 6 0 u d 8 1 6 o 7 +.6.6.q.' ",
"=.q.,.8.F o < 4 e w p y 2 4 i y p 2 2 w w p w 4 2 X 7 -.6.4.6.  ",
"] :.@.6.I o 2 2 w i p w 2 4 p w p w , u y i y , 4 < Z <.-.@.+.  ",
"_ =.-.w.~ $ 2 2 y w w w 4 4 y 4 y 4 , i 4 w 4 , 2 X 9 6.3.=.@.  ",
"~ =.:.] C . < < 4 = = 2 = 2 < = 2 < < 4 < < < < < . % _ @.=.'   "
};
