/* XPM */
static char *result[] = {
/* columns rows colors chars-per-pixel */
"30 30 4 1 ",
"  c #A4C263",
". c #C0D470",
"X c #D2E077",
"o c #EAE178",
/* pixels */
"..............................",
".....     ....................",
"...        ........oo.........",
"..         .......oooo........",
"..         ........oo....oo...",
"...       ..............oooo..",
".........................oo...",
".........   ..................",
".    ...     .................",
"      ..     ........oo.......",
"      ...   ........oooo......",
".    ................oo.......",
"..............................",
"..............................",
"..............................",
"..............................",
"..............................",
"..............................",
".....XXXXX....................",
"....XXXXXXXX..................",
"....XXXXXXXXX.......oo........",
"....XXXXXXXXX......oooo.......",
".....XXXXXXX........oo........",
"..............................",
"..XXXX........................",
".XXXXXX................oo.....",
".XXXXXX...............oooo....",
"..XXXX.................oo.....",
"..............................",
".............................."
};
