/* XPM */
static char *result[] = {
/* columns rows colors chars-per-pixel */
"30 30 3 1 ",
"  c #A4C263",
". c #C0D470",
"X c #D2E077",
/* pixels */
"..............................",
"......................     ...",
"...    .............        ..",
"..       ..........         ..",
"..        .........         ..",
"..        ..........       ...",
"..        ....................",
"...      .................   .",
"..................    ...     ",
".........    ....      ..     ",
"........      ...      ...   .",
"........      ....    ........",
".........    .................",
"..............................",
"..............................",
"..............................",
"..............................",
"..............................",
"...XXXXX..............XXXXX...",
"..XXXXXXX............XXXXXXXX.",
"..XXXXXXX............XXXXXXXXX",
"...XXXXX.............XXXXXXXXX",
"......................XXXXXXX.",
".........XXXX.................",
".......XXXXXXX.....XXXX.......",
".......XXXXXXX....XXXXXX......",
"..XXX...XXXXX.....XXXXXX......",
".XXXXX.............XXXX.......",
".XXXXX........................",
"..XXX........................."
};
