/* XPM */
static char *result[] = {
/* columns rows colors chars-per-pixel */
"30 30 12 1 ",
"  c #A4C263",
". c #C0D470",
"X c #4C468B",
"o c #555793",
"O c #5F699C",
"+ c #7180B1",
"@ c #E8EEAA",
"# c #8599C7",
"$ c #B4C8C6",
"% c #CBE0DE",
"& c #DCE0D2",
"* c #F3F4E7",
/* pixels */
"..............................",
"..............................",
"........... ............ . ...",
".......... .............. ....",
".......... ...................",
"... ..........................",
".... .........................",
".... .... ..******............",
"........ ..*oooooX*...........",
"........ .*o####++X* .........",
"...........*XXXXXX* ..........",
"..........*#%*%%%$#*..........",
"..........*#*%%%%$#*..........",
"..........*#%%%%%$#*..........",
".........*#******&&+*.........",
".........*#******&&+*.........",
".........*+******&&O*.........",
".........*+******&&O*.........",
".........*+*****&&&O*.....@.@.",
".........*O**&&&&&&O*......@..",
"......@...*OOOOOOOO*..........",
".....@.....********...........",
"..@..@........................",
"...@.@........................",
"...@.....@....................",
"...@......@........@.@........",
"..........@.........@.........",
"..........@...................",
"..............................",
".............................."
};
