/* XPM */
static char *result[] = {
/* columns rows colors chars-per-pixel */
"32 32 215 2 ",
"   c #795735",
".  c #B9370F",
"X  c #BC3613",
"o  c #B93716",
"O  c #BE3917",
"+  c #BE3419",
"@  c #BB391C",
"#  c #BE3D1C",
"$  c #DE2B10",
"%  c #DE2D16",
"&  c #DD3111",
"*  c #DD3112",
"=  c #DE351C",
"-  c #E12A0F",
";  c #E12C0F",
":  c #E1300E",
">  c #E1300F",
",  c #E23F0D",
"<  c #E22E10",
"1  c #E13010",
"2  c #E03513",
"3  c #E33C1D",
"4  c #DD3B23",
"5  c #BB4814",
"6  c #BC411A",
"7  c #B45016",
"8  c #B1691B",
"9  c #B37C19",
"0  c #88552C",
"q  c #915F2B",
"w  c #835B33",
"e  c #BF472A",
"r  c #BA5322",
"t  c #B65827",
"y  c #BD522B",
"u  c #8F6D32",
"i  c #957235",
"p  c #9A7738",
"a  c #A37934",
"s  c #A87F32",
"d  c #D54A11",
"f  c #D84418",
"g  c #DF4A1F",
"h  c #C35413",
"j  c #C85C16",
"k  c #DA5919",
"l  c #E3420D",
"z  c #E3430D",
"x  c #E3460E",
"c  c #E4530B",
"v  c #E3510D",
"b  c #E4520C",
"n  c #E34213",
"m  c #E34E10",
"M  c #E44D1A",
"N  c #E45B15",
"B  c #E15C1A",
"V  c #DA631C",
"C  c #C27519",
"Z  c #CF751E",
"A  c #E46217",
"S  c #E56D17",
"D  c #E3651E",
"F  c #E16A1B",
"G  c #E3701B",
"H  c #E1761A",
"J  c #E1731F",
"K  c #E27E18",
"L  c #C14227",
"P  c #C34A29",
"I  c #DD4123",
"U  c #C35727",
"Y  c #CA5420",
"T  c #C95723",
"R  c #C65820",
"E  c #C3552D",
"W  c #DF5832",
"Q  c #E14223",
"!  c #E35523",
"~  c #D26D20",
"^  c #CD7720",
"/  c #D27821",
"(  c #D27B25",
")  c #D87B23",
"_  c #E77320",
"`  c #E97720",
"'  c #EB7C20",
"]  c #E4792C",
"[  c #E26033",
"{  c #E16333",
"}  c #B68C18",
"|  c #9BA51B",
" . c #91BB1F",
".. c #91BC1D",
"X. c #93BC1E",
"o. c #819922",
"O. c #A8812F",
"+. c #BF872E",
"@. c #BE932D",
"#. c #A28332",
"$. c #A88331",
"%. c #AD8830",
"&. c #AF8934",
"*. c #BA9534",
"=. c #BC9634",
"-. c #98A520",
";. c #8FBB22",
":. c #9FB724",
">. c #97BE25",
",. c #A9BF22",
"<. c #ACBC20",
"1. c #BFBF25",
"2. c #BEB528",
"3. c #BCBF2E",
"4. c #E8891F",
"5. c #DD8D22",
"6. c #C99124",
"7. c #DE9326",
"8. c #DE9726",
"9. c #DF962B",
"0. c #D19F29",
"q. c #CA8D31",
"w. c #C19B34",
"e. c #EA8520",
"r. c #EA9A24",
"t. c #E78733",
"y. c #E98135",
"u. c #CEBE26",
"i. c #C8B828",
"p. c #D3B02F",
"a. c #D9B229",
"s. c #DCB328",
"d. c #C7A033",
"f. c #C8A333",
"g. c #D0A834",
"h. c #EFA127",
"j. c #E5A328",
"k. c #E4A62A",
"l. c #EFA129",
"z. c #EEA52A",
"x. c #E6AE29",
"c. c #EFA92B",
"v. c #E8AC2B",
"b. c #EEAB2C",
"n. c #F1AF2D",
"m. c #EDB02D",
"M. c #F1B22A",
"N. c #F0B42E",
"B. c #F1B62E",
"V. c #F1B72E",
"C. c #EFB634",
"Z. c #E7B33F",
"A. c #F1BE30",
"S. c #F1BF30",
"D. c #F2BF37",
"F. c #A7C63C",
"G. c #D6C32C",
"H. c #D1C532",
"J. c #D2C733",
"K. c #E4C22F",
"L. c #E5C82F",
"P. c #F4C232",
"I. c #F3C730",
"U. c #F1C432",
"Y. c #F4C831",
"T. c #F5C833",
"R. c #F5C933",
"E. c #F6CA32",
"W. c #F6CA33",
"Q. c #F6CC38",
"!. c #F4C93E",
"~. c #F2CD3D",
"^. c #A48240",
"/. c #E1824F",
"(. c #E18C55",
"). c #E18E56",
"_. c #E1945A",
"`. c #E1975C",
"'. c #E1995D",
"]. c #D7A459",
"[. c #DAA55C",
"{. c #DAA75F",
"}. c #DCA75E",
"|. c #E29D61",
" X c #E69E61",
".X c #DAA861",
"XX c #DBA862",
"oX c #DBA863",
"OX c #DBA963",
"+X c #DCA961",
"@X c #DCA962",
"#X c #DFA964",
"$X c #DDAB64",
"%X c #DEAB64",
"&X c #DEAB65",
"*X c #DCAA66",
"=X c #DFA66E",
"-X c #DEAD69",
";X c #EAA563",
":X c #EAA364",
">X c #EAA666",
",X c #E1AD67",
"<X c #EEA867",
"1X c #E1AE6A",
"2X c #E2AF6C",
"3X c #E7B26C",
"4X c #E6B36F",
"5X c #E9B46F",
"6X c #EAB56E",
"7X c #E3B276",
"8X c #E4B77B",
"9X c #DCCC42",
"0X c #F5CF41",
"qX c #F4C844",
"wX c #002E7D",
/* pixels */
"wXwXwXwXwXwXwXwXwXwXwXwXwXwXwXwXwXwXwXwXwXwXwXwXwXwXwXwXwXwXwXwX",
"wXwXwXwXwXwXwXwXwXwXwXwXwXwXwXwXwXwXwXwXwXwXwXwXwXwXwXwXwXwXwXwX",
"wXwXwXwXwXwXwXwXwXwXwXwXwXwXwXwXwXwXwXwXwXwXwXwXwXwXwXwXwXwXwXwX",
"wXwXwXwXwXwXwXwXwXwXwXwXwXwXwXwXwXwXwXwXwXwXwXwXwXwXwXwXwXwXwXwX",
"wXwXwXwXwXwXwXwXwXwXwXwXwXwXwXwXwXwXwXwXwXwXwXwXwXwXwXwXwXwXwXwX",
"wXwXwXwXwXwXwXwXwXwXwXwXwXwXwXwXwXwXwXwXwXwXwXwXwXwXwXwXwXwXwXwX",
"wXwXwXwXwXwXwXwXwXwXwXwXwXwXwXwXwXwXwXwXwXwXwXwXwXwXwXwXwXwXwXwX",
"wXwXwXwXwXwXwXwX*X[.oXOX.XXX].wXwXwXwXwXwXwXwXwXwXwXwXwXwXwXwXwX",
"wXwXwXwXwXwXwXwX7X'.).(._.`.#X%X+X{.wXwXwXwXwXwXwXwXwXwXwXwXwXwX",
"wXwXwXwXwXwXwXwXwXD & $ * 2 % { |.2X1X,X&XwXwXwXwXwXwXwXwXwXwXwX",
"wXwXwXwXwXwXwXwXwX!.B.n.N.z.` b.g W /. X>X6X}.wXwXwXwXwXwXwXwXwX",
"wXwXwXwXwXwXwXwXwX9X1.u.s./ ^ x.m.V C 9 k [ <X3X@XwXwXwXwXwXwXwX",
"wXwXwXwXwXwXwXwXwXF.X. .-.y @ h @.O.p.,.G._ Q :X5X$XwXwXwXwXwXwX",
"wXwXwXwXwXwXwXwXwXwXL.a.8 7 . e 0 %.+.H K 4.B ] ;X4X-XwXwXwXwXwX",
"wXwXwXwXwXwXwXwXwXwXQ.T.~ 6 + # q.d.G b z 1 h.c.I =X8XwXwXwXwXwX",
"wXwXwXwXwXwXwXwXwXwXD.M.A.j.) 7.R.W.l.< - > A P.y.wXwXwXwXwXwXwX",
"wXwXwXwXwXwXwXwXwXwX= , N V.Z U T k.K.d l v ' 0XwXwXwXwXwXwXwXwX",
"wXwXwXwXwXwXwXwXwXwX4 : c J P X o 5 i.| } r.qXwXwXwXwXwXwXwXwXwX",
"wXwXwXwXwXwXwXwXwXwX! f r v.j L O t f.:...H.wXwXwXwXwXwXwXwXwXwX",
"wXwXwXwXwXwXwXwXwXwXZ.s $.w.S.5.8.w *.#.J.wXwXwXwXwXwXwXwXwXwXwX",
"wXwXwXwXwXwXwXwXwXwXwXg.q 0.Y.E.I.=.  ^.wXwXwXwXwXwXwXwXwXwXwXwX",
"wXwXwXwXwXwXwXwXwXwXwX&.9.E ( e.m S C.wXwXwXwXwXwXwXwXwXwXwXwXwX",
"wXwXwXwXwXwXwXwXwXwXwXp U.R Y n ; M wXwXwXwXwXwXwXwXwXwXwXwXwXwX",
"wXwXwXwXwXwXwXwXwXwXwX3.<.6.F x 3 wXwXwXwXwXwXwXwXwXwXwXwXwXwXwX",
"wXwXwXwXwXwXwXwXwXwXwX;.o.u a t.wXwXwXwXwXwXwXwXwXwXwXwXwXwXwXwX",
"wXwXwXwXwXwXwXwXwXwXwX>.2.i wXwXwXwXwXwXwXwXwXwXwXwXwXwXwXwXwXwX",
"wXwXwXwXwXwXwXwXwXwXwXwX~.wXwXwXwXwXwXwXwXwXwXwXwXwXwXwXwXwXwXwX",
"wXwXwXwXwXwXwXwXwXwXwXwXwXwXwXwXwXwXwXwXwXwXwXwXwXwXwXwXwXwXwXwX",
"wXwXwXwXwXwXwXwXwXwXwXwXwXwXwXwXwXwXwXwXwXwXwXwXwXwXwXwXwXwXwXwX",
"wXwXwXwXwXwXwXwXwXwXwXwXwXwXwXwXwXwXwXwXwXwXwXwXwXwXwXwXwXwXwXwX",
"wXwXwXwXwXwXwXwXwXwXwXwXwXwXwXwXwXwXwXwXwXwXwXwXwXwXwXwXwXwXwXwX",
"wXwXwXwXwXwXwXwXwXwXwXwXwXwXwXwXwXwXwXwXwXwXwXwXwXwXwXwXwXwXwXwX"
};
