/* XPM */
static char *result[] = {
/* columns rows colors chars-per-pixel */
"30 30 20 1 ",
"  c #5F7A79",
". c #90625D",
"X c #AA7959",
"o c #8A4A70",
"O c #A35B70",
"+ c #AF6776",
"@ c #BD757E",
"# c #6E967C",
"$ c #B68962",
"% c #C49A6C",
"& c #A4C263",
"* c #B3C473",
"= c #C0D470",
"- c #D2E077",
"; c #EAE178",
": c #97BB8E",
"> c #D99A9A",
", c #E8B5AC",
"< c #AED499",
"1 c #C2E09A",
/* pixels */
"===========         ==========",
"=====&&&&  :<<<<<<:: =========",
"===&&&&  :<<<111<11<:  =======",
"==&&&& :<<<<<111<11<<:: ======",
"==&&& :<111<111<<<<<<<<: ;;===",
"===& ::<111111<<<111<<<:: ;;==",
"==== <<<<<11<<<<<1++1+O:: ;===",
"=== :<<<<<<<<<<<<+,>+@@o<: ===",
"=&& :<<<<<<<<<<<<O>@@@@o<: ===",
"&&& ::++<+O:<<<<<<O@+@o::: ===",
"&&& :+,>+@@o<<<<<<:ooo<:: ====",
"=&& :O>@@@@o:::<<:<<<:::: ====",
"==== :O@+@o::::::::::::::: ===",
"==== ::ooo:::::::::::::::: ===",
"=== #::::::::::::::::::::# ===",
"=== ###:##::###:::::###### ===",
"=== ###:##::###++:+O###### ===",
"=== ########::+,>+@@o::## ====",
"==== ##:::####O>@@@@o#### ====",
"==== ##########O@+@o##### ====",
"====- ##########ooo##### =====",
"====--  #############   ======",
"=====---             ;========",
"===========.XXXXXX.===========",
"==----=====.$XXXX$.===========",
"=------===*.$$$$$$.*===;;=====",
"=------=***.$%$%%%.***;;;;====",
"==----=***.%%%%%%%%.***;;=====",
"=======****%%%%%%%%****=======",
"========******%%******========"
};
