/* XPM */
static char *c891cae1742b4de7a24d892b30ea96d6vmT7pU2A0UWl25sZ[] = {
/* columns rows colors chars-per-pixel */
"32 32 219 2 ",
"   c #57585A",
".  c #5A5B5F",
"X  c #5E5F61",
"o  c #5E5F63",
"O  c #5F6064",
"+  c #606165",
"@  c #626166",
"#  c #626367",
"$  c #646368",
"%  c #636468",
"&  c #646569",
"*  c #666769",
"=  c #66656A",
"-  c #65666A",
";  c #66676B",
":  c #68676C",
">  c gray42",
",  c #69686D",
"<  c #68696D",
"1  c #6A696E",
"2  c #696A6E",
"3  c #6A6B6F",
"4  c #6D6D6F",
"5  c #6C6B70",
"6  c #6D6B70",
"7  c #6B6C70",
"8  c #6D6C71",
"9  c #6C6D71",
"0  c #6D6E70",
"q  c #6E6D72",
"w  c #6F6D72",
"e  c #6D6E72",
"r  c #6F6E73",
"t  c #6E6F73",
"y  c #706F74",
"u  c #6F7074",
"i  c #717075",
"p  c #707175",
"a  c #737375",
"s  c #717076",
"d  c #727176",
"f  c #717276",
"g  c #737277",
"h  c #727377",
"j  c #747476",
"k  c #757577",
"l  c #767877",
"z  c #747378",
"x  c #737478",
"c  c #747579",
"v  c #757678",
"b  c #76757A",
"n  c #75767A",
"m  c #77767B",
"M  c #76777B",
"N  c #78767B",
"B  c #78777C",
"V  c #77787C",
"C  c #79787D",
"Z  c #78797D",
"A  c #7A797E",
"S  c #797A7E",
"D  c #7B7A7F",
"F  c #7A7B7F",
"G  c #7C7A7F",
"H  c #7D7D7F",
"J  c #7B7A80",
"K  c #7C7B80",
"L  c #7B7C80",
"P  c #7D7C81",
"I  c #7C7D81",
"U  c #7F7F81",
"Y  c #7E7D82",
"T  c #7D7E82",
"R  c #7F7E83",
"E  c #7E7F83",
"W  c #807F84",
"Q  c #817F84",
"!  c #7F8084",
"~  c #818085",
"^  c #808185",
"/  c #828085",
"(  c #828284",
")  c #828186",
"_  c #818286",
"`  c #838287",
"'  c #828387",
"]  c #838486",
"[  c #858587",
"{  c #848388",
"}  c #838488",
"|  c #858489",
" . c #848589",
".. c #878789",
"X. c #86858A",
"o. c #85868A",
"O. c #87868B",
"+. c #86878B",
"@. c #86878C",
"#. c #88878C",
"$. c #87888C",
"%. c #89888D",
"&. c #88898D",
"*. c #8A898E",
"=. c #898A8E",
"-. c #8A8B8F",
";. c #8C8D8F",
":. c #8A8B90",
">. c #8C8B90",
",. c #8B8C90",
"<. c #8D8C91",
"1. c #8C8D91",
"2. c #8C8D92",
"3. c #8E8D92",
"4. c #8D8E92",
"5. c #8F8E93",
"6. c #8E8F93",
"7. c #8E8F94",
"8. c #8F9094",
"9. c #919095",
"0. c #909195",
"q. c #919294",
"w. c #929196",
"e. c #919296",
"r. c #939297",
"t. c #929397",
"y. c #939594",
"u. c #939496",
"i. c #949398",
"p. c #939498",
"a. c #959499",
"s. c #949599",
"d. c #95969A",
"f. c #96979B",
"g. c #99979C",
"h. c #979998",
"j. c #97989C",
"k. c #98999B",
"l. c #98999D",
"z. c #9A9B9D",
"x. c #999A9E",
"c. c #9B9A9F",
"v. c #9A9B9F",
"b. c #9B9CA0",
"n. c #9C9DA1",
"m. c #9D9EA2",
"M. c #9F9EA3",
"N. c #9E9FA3",
"B. c #9FA0A4",
"V. c #A0A1A5",
"C. c #A2A3A5",
"Z. c #A3A1A6",
"A. c #A1A2A6",
"S. c #A3A2A7",
"D. c #A2A3A7",
"F. c #A3A4A6",
"G. c #A4A3A8",
"H. c #A3A4A8",
"J. c #A4A5A9",
"K. c #A5A6AA",
"L. c #A6A7AB",
"P. c #A7A8AA",
"I. c #A7A8AC",
"U. c #A8A9AD",
"Y. c #A9AAAC",
"T. c #AAABAD",
"R. c #ABABAD",
"E. c #A9AAAE",
"W. c #AAABAF",
"Q. c #ABACB0",
"!. c #ABACB1",
"~. c #ACADB1",
"^. c #ADAEB0",
"/. c #AEADB2",
"(. c #ADAEB2",
"). c #AFAEB3",
"_. c #AEAFB3",
"`. c #B0AFB4",
"'. c #AFB0B2",
"]. c #AFB0B4",
"[. c #B1B2B4",
"{. c #B1B2B6",
"}. c #B2B3B7",
"|. c #B4B4B6",
" X c #B3B4B8",
".X c #B5B4B9",
"XX c #B4B5B9",
"oX c #B5B6BA",
"OX c #B7B6BB",
"+X c #B6B7BB",
"@X c #B8B9BB",
"#X c #B8B9BD",
"$X c #B9BABC",
"%X c #BABABC",
"&X c #B9BABE",
"*X c #BBBABF",
"=X c #BABBBF",
"-X c #BCBDBF",
";X c #BCBDC1",
":X c #BEBFC1",
">X c #BDBEC2",
",X c #BEBFC3",
"<X c #C0BFC4",
"1X c #BFC0C2",
"2X c #C0C0C2",
"3X c #C2C2C4",
"4X c #C3C2C7",
"5X c #C2C3C7",
"6X c #C3C4C8",
"7X c #C6C7C9",
"8X c #C6C7CB",
"9X c #C8C9CB",
"0X c #C9CACC",
"qX c #C9CACE",
"wX c #CCCDCF",
"eX c #CECFD3",
"rX c #D1D1D3",
"tX c #D2D2D4",
"yX c #E6E7E9",
/* pixels */
"0X^.v wX2X|.g.Q ! n I.n.f B.oX! n.Q. .4.I.j.s.B.E.B.eXK.L 1X(.! ",
"F.v $XT.k rX*.D ] j.b.u j.K.! s.{.2.8.B.L ! s.K.B.oX+X8.;Xj.L I.",
"  k.:X* 3XtXX.X.2.s.$.K.n.9 j.I.$.n.K.D  .$.s.B.K.Q.K.1XW.T }.B.",
"l.-XX F.yXT.R X.j.j.j.K.V j.n.n j.n.L 8.s.B.B.n.L Q.].&XB.+XB. .",
"$X0 ] 7X9XL.*.^ V K.K.n.K.s.u n.B.u x.Q.j.d.s.].d.u ].1XQ.Q.2.].",
"L ] 1X-X[.s.^ Q.s.9 n.K.2.2.8.j.9 B.Q.B.].K.8. .6XB.u Q.(.b.L.K.",
"s.8X'.@Xz.m.X.2.oXn.9 j.n.$.s.! n.Q.Q.n.:.s.oX$.L 1XL.u s.B.B.B.",
";XoXF.P.u.2.{.2. .+Xn.9 s.u.$.j.K.B.n.I.I.! =.qX2.n W.K.V 2.B.].",
"oXK.A.8.I.-.8.+Xs.F K.s. .j.s.K.K.B.n.2.f.-X! ! >Xn.9 e.}.B.(.{.",
"+X$.m.f.n.oX . .].j.V 8.n.n.t.j.j.8.2.B.! 8.;X2.n L.L.2.n.L.B.].",
"I.j.! I.$.8.+X$.V z.j.s.d.2.z.j.! s.L  .].! $.Q.8.! m.(.B.8.j.:.",
"I.I.$.V K.$.! Q.2. .j.j.8.s.$.L 8.d.d.V V I. .! B.I.B.K.b.j.! ! ",
"n.B.A.E u K.*.L n.s.2.8.F.!  .$.8. .8.s.L < B.-.o.n.B.K.f.! 8.n.",
"E L.n.f.V 7 j.2.2.2.4.K.! L s.2.L s.B.=.j.n 9 n.B.j.I.j.V 2.L.2.",
"j.8.' s.b.! V s.$.8.F.L u j.8.L $.:.! u.B.j.2.$.8.Q.I.u s.E.=.@.",
"4.e $.j.:.s.2.4.-.j.n n j.8.L 8.8.n 8.B.:.u.B.j.j.I.V j.B.o.s.Q.",
"<  .2.2  .j.2.$.s.L L s.] V 8.2.! j.2.L 8.F.$.=.b.t.f.m.D s.A.' ",
"t.z.< n  .n L  . .$.s.! 9 2.] L j.8.F 8.=.S L s.t.8.L.*.8.s.v s.",
"8.9  . .* % L s.$.$.$.! 8.V u 8.! @.B.8.n 8.=.8.i.G.t.4.j.V :.f.",
"% ! 2.O 9 V D L s.B.$.2.$.n 2.u L B.] ! 2.j.L.d.J 4.L.t.s.:.f.v ",
" .! O L L  .j.$.0 m _.4.! 8.u n n.n n $.u.s.s.n.A.D 8.^.4.s.J $.",
"J X 8.s.j.R < 2._.m Y .X8.$.L ! n u 8.8.j.Q.x. .A._.!  .A.4.8.2.",
"O o.n.o.^ n.4.$ Q <X| m K.8.J V V 2.d.x.8.$.K.I.B i.]. .L j.2.2.",
"$.8.s.B.2.$ *.}.y b ;XE 9 s.L n 2.8.8.$.I.K.u d._.B  .A.^ L s.u.",
"8.b.-.l y.Y.@ F <XY y M.| Y ! ! $.d.n.8.V L.I.9 :.I.L V t.8.8.s.",
"@.e.q.h.> ( *Xs y `.Q e O.:.D J ! ! F B.I.n 2.K.s E s.$.*. .2.F.",
"J m R ] |.a N +XJ 5 i.Q Q m 0 ' n V $.9 =.x.h L f.D D 8.8.2.n.s.",
"n ' R 4 a $XG 4 G.Y | #.Y m m $ u 8.S  .< - s.s s t.$. .u.j.L  .",
"^ R N $.a : Z.^ h t.Q Y O.B = 0 ! n n =. .u O 2.! $.! e.2.< $.j.",
"0 s 3.' Q B : 3. . .' 4.| 7 y R % u s.L ! $.V n 8.! $.] % $.8.n ",
"y ^ m u #.X.Q B O.L 4.#.5 J J 0 u ! % V B.! $.$. . .8.9 $.$.u ! ",
"| 0 7 X.#.v | #.X.^ X.: J Y 0 u  .< u 2.u L s.!  .$.V $.V u ! 8."
};
