/* XPM */
static char *result[] = {
/* columns rows colors chars-per-pixel */
"30 30 3 1 ",
"  c #A4C263",
". c #C0D470",
"X c #E8EEAA",
/* pixels */
"..............................",
"..............................",
"........... ............ . ...",
".......... .............. ....",
".......... ...................",
"... ..........................",
".... .........................",
".... .... ....................",
"........ .....................",
"........ ......... . .........",
"................... ..........",
"..............................",
"..............................",
"..............................",
"..............................",
"..............................",
"..............................",
"..............................",
"..........................X.X.",
"...........................X..",
"......X.......................",
".....X........................",
"..X..X........................",
"...X.X........................",
"...X.....X....................",
"...X......X........X.X........",
"..........X.........X.........",
"..........X...................",
"..............................",
".............................."
};
