/* XPM */
static char *result[] = {
/* columns rows colors chars-per-pixel */
"30 30 43 1 ",
"  c #002E7D",
". c #181627",
"X c #181727",
"o c #181628",
"O c #18172A",
"+ c #17192C",
"@ c #171A2D",
"# c #171A2E",
"$ c #171B2F",
"% c #181829",
"& c #18182A",
"* c #18182B",
"= c #18192C",
"- c #171C30",
"; c #171C31",
": c #171D33",
"> c #171E33",
", c #162036",
"< c #162239",
"1 c #16223A",
"2 c #16233B",
"3 c #16233C",
"4 c #16253E",
"5 c #152641",
"6 c #142942",
"7 c #152945",
"8 c #152A46",
"9 c #152A47",
"0 c #142E4C",
"q c #142F4E",
"w c #133253",
"e c #123451",
"r c #133556",
"t c #13385C",
"y c #113F63",
"u c #0F4467",
"i c #0F466A",
"p c #11426B",
"a c #0F4D7B",
"s c #0E5582",
"d c #147DA5",
"f c #1285AE",
"g c #14A0C7",
/* pixels */
"                 %X   1       ",
"  :      :    rd           e  ",
"               6   2     8    ",
"           +                6 ",
"   .   :     .                ",
"                     e        ",
"      # 8   r   #        &3   ",
"               .         @w   ",
"                          >   ",
"    $        e r :    8       ",
"   1      8   rgs            8",
"               s  e      :    ",
"           ,3o                ",
"        :  3a7o    &  :     : ",
"           o79* :    +    e:  ",
" .          o*                ",
"     O        1               ",
"           6               2  ",
"  #                   ,3o 8   ",
"         2       o    3a7if   ",
"  &                   o79*y   ",
"           1       u   o*     ",
"    rd                      : ",
"     6    o     :       #     ",
"          oo  =               ",
"           ;31     .  :       ",
"       @o  @t<            1   ",
"    # 50<  =*#o :             ",
"     @00-     o         :     ",
"     o4-                      ",
};
