/* XPM */
static char *result[] = {
/* columns rows colors chars-per-pixel */
"30 30 31 1 ",
"  c #002E7D",
". c #1D397F",
"X c #4A4278",
"o c #634B75",
"O c #D97400",
"+ c #CA6D29",
"@ c #B8694A",
"# c #83566F",
"$ c #303E80",
"% c #004285",
"& c #004386",
"* c #004C89",
"= c #004D8B",
"- c #004E8D",
"; c #00558F",
": c #005694",
"> c #005891",
", c #005994",
"< c #00659E",
"1 c #00699E",
"2 c #006C9D",
"3 c #0079A7",
"4 c #0077AC",
"5 c #007EA8",
"6 c #434482",
"7 c #A16A8B",
"8 c #B56D86",
"9 c #0088AF",
"0 c #0087B1",
"q c #0093BB",
"w c #0098BF",
/* pixels */
"      <  5%>   6  +X  <  5%   ",
"  1            7.         o . ",
"     =               =   o@   ",
"  =           =  *=           ",
"  > <         > *3  <         ",
"      ,                       ",
"   <     <     <   <  =       ",
"    w*      q*                ",
"    *     = *             =   ",
" =6          =6        -      ",
"                  ,       *   ",
">    =          >    =   *3   ",
" 67          #=             =#",
"  .          +X <            +",
" >   >           >       4  1 ",
"             >        -      >",
"  , 4    2        , 4    >    ",
" q*            =            ; ",
" *    >  4   67   >  >       6",
"              . >   ;         ",
"#+>               > 0%        ",
" X        & ,  &       :   :, ",
"  -           -               ",
"4     = ;0  4         = ;0    ",
"    1 &  %>      -       %>  -",
"             >                ",
"       8$             ,       ",
"       $  Oo  :  9*=      Oo  ",
"     4   -o      *   4   -o   ",
"  &           &               ",
};
