/* XPM */
static char *result[] = {
/* columns rows colors chars-per-pixel */
"30 30 70 1 ",
"  c #002E7D",
". c #1A1527",
"X c #1B1528",
"o c #1D162A",
"O c #171D35",
"+ c #20182C",
"@ c #20182D",
"# c #22192E",
"$ c #331D27",
"% c #361E2A",
"& c #241930",
"* c #251A31",
"= c #271B33",
"- c #281B34",
"; c #2A1C36",
": c #2D1D36",
"> c #2C1D37",
", c #2F1E38",
"< c #2E1E39",
"1 c #2F1E3A",
"2 c #2F1F3B",
"3 c #301E37",
"4 c #321F39",
"5 c #311F3C",
"6 c #192233",
"7 c #17223D",
"8 c #1A2939",
"9 c #272229",
"0 c #2F292B",
"q c #3A332E",
"w c #3D362F",
"e c #36213D",
"r c #37213D",
"t c #3A223E",
"y c #402127",
"u c #4E2C24",
"i c #502C26",
"p c #542729",
"a c #57292C",
"s c #4F4733",
"d c #6B603B",
"f c #142942",
"g c #152A46",
"h c #192B47",
"j c #1B3344",
"k c #1B3646",
"l c #123451",
"z c #2A2F43",
"x c #392343",
"c c #3E2545",
"v c #312B42",
"b c #20384B",
"n c #33365A",
"m c #412546",
"M c #1D4757",
"N c #0F4467",
"B c #1F6070",
"V c #A6552E",
"C c #A95631",
"Z c #A8652D",
"A c #D68F39",
"S c #E79339",
"D c #F4B343",
"F c #156288",
"G c #126C93",
"H c #10769E",
"J c #108CB6",
"K c #1696BC",
"L c #14A0C7",
"P c #4FD4EA",
/* pixels */
" B      13   N 0     &        ",
"0oX   2+@    Jf *< M 5o    +  ",
" xi   z2    o    ,#    +      ",
" uZ                  & t* o=  ",
"                      &o+  -  ",
"+    r@ p    xX   v1     B 0  ",
"    =- k    9X. Au1o    0oX 2+",
"   9         M  u        x. z2",
"              6  * 0 9        ",
"  k     g d  bX+ o   NJ=      ",
" l  8  gF    Xc       n-+  r@ ",
"7            +g   &+  @j Ll- k",
"         +   KPg &eo     l    ",
" $       8   lG  ;oj   k      ",
"  *q                        q ",
"  <*    k    xX  w     p      ",
"         @  0Xo  o   &aDV     ",
"     j  >:0          XmC$    y",
" +       +    k     d Xo  B 8 ",
"  &      M      8             ",
" >4    &         * 0 B        ",
" oo+ pV      oX+ o  0oX   2O  ",
"  +  VS$     Xc      x.   z  f",
"      %   *q +g   &+          ",
"j      s  <* KPg &eo   +    0 ",
"  2+         lG  ;oj+    r@   ",
"  +o8 1o             Ll =-    ",
"     1:  +   xX  w   l 9      ",
"  +o8 1o             Ll =-    ",
"     1:  +   xX  w   l 9      ",
};
